<svg xmlns="http://www.w3.org/2000/svg" width="430.393" height="480.997" viewBox="0 0 619.393 577.997"><defs><style>.a{fill:#e6e6e6;}.b{fill:#3f3d56;}.c{fill:#fff;}.d{fill:#7e67f5;}.e{fill:#6c63ff;}.f{fill:#9f616a;}.g{fill:#2f2e41;}.h{opacity:0.1;}.i{opacity:0.2;}</style></defs><ellipse class="a" cx="309.697" cy="13.521" rx="309.697" ry="13.521" transform="translate(0 550.954)"/><path class="b" d="M794.962,214.075h-3V128.639c0-27.309-21.323-49.447-47.627-49.447H569.99c-26.3,0-47.627,22.139-47.627,49.448V597.345c0,27.309,21.323,49.448,47.627,49.448H744.331c26.3,0,47.627-22.139,47.627-49.448V274.889h3Z" transform="translate(-260.826 -79.192)"/><path class="c" d="M750.605,95.686H727.848a18.177,18.177,0,0,1-1.621,16.44A16.731,16.731,0,0,1,712.2,119.9H612.325a16.731,16.731,0,0,1-14.023-7.771,18.178,18.178,0,0,1-1.622-16.442H575.424c-19.643,0-35.567,16.562-35.567,36.992V601.514c0,20.43,15.924,36.992,35.567,36.992H750.605c19.643,0,35.568-16.562,35.567-36.992V132.678c0-20.43-15.924-36.991-35.567-36.991Z" transform="translate(-270.847 -83.296)"/><path class="d" d="M693.677,703.253a67.5,67.5,0,1,1,49.915-22.095l14.1,15.8-7.034,2.984c-10.882,4.616-21.531.124-27.508-3.46a67.585,67.585,0,0,1-29.469,6.769Zm0-123.908a56.478,56.478,0,1,0,27.151,106.011l3.011-1.655,2.8,1.992a29.614,29.614,0,0,0,10.685,4.889l-8.87-9.943,3.888-3.654a55.946,55.946,0,0,0,17.812-41.162,56.542,56.542,0,0,0-56.478-56.478Z" transform="translate(-292.991 -179.972)"/><path class="c" d="M757.5,637.7a61.929,61.929,0,1,0-32.166,54.333c4.283,3.047,14.73,9.125,25.051,4.747l-12.424-13.927A61.778,61.778,0,0,0,757.5,637.7Z" transform="translate(-294.944 -181.849)"/><rect class="e" width="44.269" height="4.111" transform="translate(367.797 438.245)"/><rect class="a" width="77.158" height="4.111" transform="translate(368.616 453.004)"/><rect class="a" width="77.082" height="4.111" transform="translate(368.614 471.627)"/><path class="d" d="M693.677,304.253a67.5,67.5,0,1,1,49.915-22.1l14.1,15.8-7.034,2.984c-10.882,4.616-21.531.124-27.508-3.46A67.586,67.586,0,0,1,693.677,304.253Zm0-123.908a56.478,56.478,0,1,0,27.151,106.011l3.011-1.655,2.8,1.992a29.614,29.614,0,0,0,10.685,4.889l-8.87-9.943,3.888-3.654a55.946,55.946,0,0,0,17.812-41.162,56.542,56.542,0,0,0-56.478-56.478Z" transform="translate(-292.991 -101.598)"/><path class="c" d="M757.5,238.7a61.929,61.929,0,1,0-32.166,54.333c4.283,3.047,14.73,9.125,25.051,4.747l-12.424-13.927A61.778,61.778,0,0,0,757.5,238.7Z" transform="translate(-294.944 -103.475)"/><rect class="e" width="44.269" height="4.111" transform="translate(367.797 127.191)"/><rect class="a" width="77.158" height="4.111" transform="translate(368.616 141.95)"/><rect class="a" width="77.082" height="4.111" transform="translate(368.614 156.709)"/><circle class="a" cx="9.765" cy="9.765" r="9.765" transform="translate(478.983 196.228)"/><circle class="a" cx="9.765" cy="9.765" r="9.765" transform="translate(478.983 509.51)"/><path class="f" d="M167.219,237.79l-4.681,23.41,21.849,16.387,10.144-30.432Z" transform="translate(-36.066 -51.947)"/><circle class="f" cx="21.069" cy="21.069" r="21.069" transform="translate(127.765 164.358)"/><path class="g" d="M330.817,531.029s16.387,78.814,18.728,86.617,0,8.584,0,8.584-3.121,2.341-.78,3.121-4.682,4.682-4.682,4.682-3.121,14.826-4.682,17.948-8.584,22.629-9.364,22.629-4.682,11.7-4.682,11.7,9.364,14.826,19.508,8.584l3.9-7.023,31.213-46.039s13.266-14.826,10.144-32.774l1.561,18.728,3.121,60.866s-8.584,5.462-2.341,14.046c0,0,16.387,5.462,23.41-3.121,0,0,1.561-4.682-.78-7.023s-2.341-2.341-.78-3.9,3.9-4.682,3.9-6.243V676.17l3.9-71.01s-10.925-71.79-19.508-75.692S330.817,531.029,330.817,531.029Z" transform="translate(-228.358 -169.974)"/><path class="g" d="M414.07,756.389s-10.144,19.508-1.561,21.849a69.81,69.81,0,0,0,16.387,2.341s21.849,17.167,30.433,8.584-3.9-15.607-3.9-15.607-15.607-10.925-16.387-14.046S414.07,756.389,414.07,756.389Z" transform="translate(-247.144 -226.784)"/><path class="g" d="M321.941,737.172s-17.531,19.937-9.994,24.665a69.814,69.814,0,0,0,15.005,6.989s15.937,22.762,26.64,17.035.788-16.068.788-16.068-11.771-14.979-11.613-18.192S321.941,737.172,321.941,737.172Z" transform="translate(-228.325 -222.002)"/><path class="e" d="M406.3,484.712s-3.121,6.243-15.607,3.9-61.646,0-61.646,0,2.731-55.794-3.511-89.348,18.338-52.672,18.338-52.672l7.8-7.8c7.8-.781,24.284,23.44,24.284,23.44,5.735.96,15.022,26.751,19.5,49.583,2.13,10.893,4.034,22.528,5.634,33.226C404.343,466.8,406.3,484.712,406.3,484.712Z" transform="translate(-228.285 -133.757)"/><path class="g" d="M360.184,293.22s-3.939-8.666,6.3-12.605c0,0,8.666-14.181,26-4.727,0,0,11.818,4.727,11.818,17.332s3.939,14.969,3.939,14.969-5.866-6.018-7.442-10.745-13.83-5.8-18.557-1.072S365.7,300.31,365.7,300.31l.788,17.332s-3.939-10.242-5.515-10.242S357.821,293.22,360.184,293.22Z" transform="translate(-236.117 -121.392)"/><path class="e" d="M549.234,493.5c-6.209,3.724-17.271,8.389-28.575,3.594l-7.307-3.1,14.643-16.415a69.934,69.934,0,1,1,21.239,15.92Zm-28.056-63.013a58.116,58.116,0,0,0,18.5,42.759l4.039,3.8-9.214,10.329a30.762,30.762,0,0,0,11.1-5.078l2.908-2.069,3.128,1.719a58.675,58.675,0,1,0-30.465-51.454Z" transform="translate(-267.778 -138.631)"/><path class="c" d="M517.353,432.31a64.331,64.331,0,1,1,33.413,56.44c-4.449,3.165-15.3,9.479-26.023,4.931l12.906-14.467a64.174,64.174,0,0,1-20.3-46.9Z" transform="translate(-269.643 -140.465)"/><path class="h" d="M654.124,431.863a64.359,64.359,0,0,0-58.665-64.1c1.871-.165,3.767-.253,5.684-.253a64.357,64.357,0,1,1,0,128.714c-1.914,0-3.807-.09-5.679-.254A64.36,64.36,0,0,0,654.124,431.863Z" transform="translate(-287.96 -140.36)"/><rect class="e" width="45.986" height="4.271" transform="translate(274.586 278.238)"/><rect class="e" width="80.151" height="4.271" transform="translate(275.227 293.57)"/><rect class="e" width="80.072" height="4.271" transform="translate(275.225 308.901)"/><path class="i" d="M404.244,455.185c-18.143-9.122-51.361-33.265-61.662-45.977-12.821-15.81,1.163-27.834,1.163-27.834,15.856-10,34.818,24.323,34.818,24.323l20.047,16.262C400.741,432.851,402.644,444.487,404.244,455.185Z" transform="translate(-231.17 -144.128)"/><path class="f" d="M496.216,457.926s27.674,11.234,32.229-1.395S506.6,444.119,506.6,444.119l-10.366,1.469Z" transform="translate(-266.691 -159.353)"/><path class="e" d="M339.023,374.536s-13.98,12.026-1.167,27.833,61.092,49.323,71.7,49.582,38.358-10.37,38.358-10.37l10.855,1.986,2.047-20.38-15.992,1.561-45.1-4.888-25.886-21S354.877,364.535,339.023,374.536Z" transform="translate(-229.64 -142.577)"/><path class="i" d="M206.5,488.809l2.446,57.151-6.2-57.151Z" transform="translate(-45.225 -106.269)"/></svg>