<svg xmlns="http://www.w3.org/2000/svg" width="29.935" height="37.666" viewBox="0 0 29.935 37.666"><defs><style>.a{fill:#707070;}</style></defs><g transform="translate(-6.775 -3.93)"><path class="a" d="M20.37,28.336a.911.911,0,0,0-.893.717,1.762,1.762,0,0,1-.352.766,1.329,1.329,0,0,1-1.132.415,1.351,1.351,0,0,1-1.132-.415,1.762,1.762,0,0,1-.352-.766.911.911,0,0,0-.893-.717h0a.917.917,0,0,0-.893,1.118,3.142,3.142,0,0,0,3.27,2.609,3.136,3.136,0,0,0,3.27-2.609.92.92,0,0,0-.893-1.118Z" transform="translate(3.72 9.534)"/><path class="a" d="M36.335,33.374c-1.442-2.017-4.28-3.2-4.28-12.233,0-9.271-3.858-13-7.454-13.892-.337-.089-.581-.209-.581-.586V6.375A2.374,2.374,0,0,0,21.772,3.93h-.056a2.374,2.374,0,0,0-2.248,2.445v.288c0,.368-.243.5-.581.586-3.605.9-7.454,4.621-7.454,13.892,0,9.033-2.838,10.205-4.28,12.233a1.983,1.983,0,0,0,1.489,3.16H34.874A1.986,1.986,0,0,0,36.335,33.374Zm-3.652.576H10.844a.439.439,0,0,1-.309-.725A12.157,12.157,0,0,0,12.5,29.906a23.759,23.759,0,0,0,1.339-8.765c0-3.707.656-6.608,1.957-8.625a6.015,6.015,0,0,1,3.624-2.743A3.244,3.244,0,0,0,21.164,8.73a.713.713,0,0,1,1.114-.02,3.35,3.35,0,0,0,1.761,1.063,6.015,6.015,0,0,1,3.624,2.743c1.3,2.017,1.957,4.919,1.957,8.625a23.759,23.759,0,0,0,1.339,8.765,12.287,12.287,0,0,0,2.013,3.369A.414.414,0,0,1,32.682,33.95Z" transform="translate(0 0)"/></g></svg>