<svg xmlns="http://www.w3.org/2000/svg" width="19.481" height="19.517" viewBox="0 0 19.481 19.517"><defs><style>.a{fill:none;stroke:#7e67f5;stroke-linecap:round;stroke-linejoin:round;stroke-width:2px;}</style></defs><path class="a" d="M20.647,16.113V18.75a1.758,1.758,0,0,1-1.916,1.758,17.393,17.393,0,0,1-7.585-2.7,17.138,17.138,0,0,1-5.273-5.273,17.393,17.393,0,0,1-2.7-7.62A1.758,1.758,0,0,1,4.924,3H7.561A1.758,1.758,0,0,1,9.318,4.512a11.285,11.285,0,0,0,.615,2.47,1.758,1.758,0,0,1-.4,1.854L8.422,9.952A14.062,14.062,0,0,0,13.7,15.225l1.116-1.116a1.758,1.758,0,0,1,1.854-.4,11.285,11.285,0,0,0,2.47.615,1.758,1.758,0,0,1,1.512,1.784Z" transform="translate(-2.167 -2)"/></svg>