<svg xmlns="http://www.w3.org/2000/svg" width="500" height="350" viewBox="0 0 577.634 493.443"><ellipse cx="94.087" cy="14.27" rx="94.087" ry="14.27" transform="translate(380.675 464.902)" fill="#e6e6e6"/><path d="M893.386,689.42s5.056,20.353,8.426,25.605,6.179,13.788,4.494,15.1-5.056,17.07-.562,17.727,14.605-17.07,15.167-22.979,2.809-26.919,2.809-26.919,3.932-18.383-2.247-19.7a142.769,142.769,0,0,0-15.729-1.97Z" transform="translate(-413.435 -259.935)" fill="#2f2e41"/><path d="M850.738,721.989s-7.3,22.323-8.988,23.636-7.864,13.131,4.494,13.131,19.1-3.939,19.1-3.939l3.932-5.252s0-13.788-1.124-15.757,0-11.818,0-11.818Z" transform="translate(-394.38 -270.838)" fill="#2f2e41"/><path d="M778.1,450.846s-8.988,70.907-1.123,93.887,15.729,29.545,15.729,29.545l59.545,65s18.538-11.161,16.852-18.383c0,0-3.932-2.626-4.494-4.6s-7.864-2.626-7.864-2.626-3.37-4.6-3.37-7.222-29.211-49.241-38.76-52.524c0,0-5.056-7.222-4.494-8.535s-1.685-5.909-1.685-5.909l5.617-25.605,35.39-6.566s14.605-60.4,2.247-65S778.1,450.846,778.1,450.846Z" transform="translate(-371.74 -203.883)" fill="#2f2e41"/><path d="M870.157,514.184l1.123,10.5s0,27.575-1.123,30.2-1.685,6.566,0,9.192,4.494,9.192,3.371,11.818,2.247,76.816-2.247,82.068-2.809,11.818-2.247,12.474-.562,3.283-.562,3.283-23.031,4.6-21.346,0,1.685-7.222,2.809-8.535,0-3.283,0-3.283,1.685-21.01,0-22.323-6.741-64.342-6.741-65-1.685-1.97-1.685-4.6,0-11.161-2.809-12.474-2.247-33.484-2.247-33.484Z" transform="translate(-393.576 -221.262)" fill="#2f2e41"/><path d="M812.267,206.358s2.247,19.7,8.988,23.636A121.43,121.43,0,0,0,832.49,235.9l-5.617,22.979-2.247,19.7h-25.84l-14.043-13.131,4.494-21.666,2.247-3.939s2.809-14.444.562-19.04S812.267,206.358,812.267,206.358Z" transform="translate(-375.57 -142.483)" fill="#ffb9b9"/><path d="M791.115,262.309l3.932,8.535s2.809-11.818,6.741-13.788,13.482-5.252,13.482-7.879-.562-9.192,1.685-9.192,24.155,7.879,27.525,10.5,3.932,5.252,3.932,5.252l-6.179,75.5s8.988,35.454,6.179,49.241-5.056,15.757-11.8,17.727-2.809-4.6-22.47,1.97-32.019,4.6-36.513,4.6-7.3,2.626-8.426,3.283-.562-3.283,3.37-9.192,2.247-15.757,2.247-15.757-4.494-17.07-1.685-23.636,6.741-15.1,3.371-17.727-7.864-22.323-7.864-22.323l-12.358-51.211,25.278-20.353s-1.124,9.192,2.809,11.161S791.115,262.309,791.115,262.309Z" transform="translate(-365.652 -151.951)" fill="#7e67f5"/><path d="M756.653,276.2h-3.371s-5.617,11.161-5.617,19.04,2.809,52.524,2.809,52.524l16.29,19.7,3.932-15.1,1.124-33.484Z" transform="translate(-362.647 -160.679)" fill="#575a89"/><path d="M765.634,367.014s-18.537-5.909-17.976,3.283,3.37,20.353,12.358,22.979,11.8-11.818,11.8-11.818S772.936,368.328,765.634,367.014Z" transform="translate(-362.641 -182.463)" fill="#575a89"/><path d="M877.97,407.264s-1.124,30.2-7.864,33.484l16.291,4.6s7.864-31.514,6.741-32.828S877.97,407.264,877.97,407.264Z" transform="translate(-405.321 -192.927)" fill="#ffb9b9"/><path d="M3.277.654,14.089,0A1.409,1.409,0,0,1,15.52,1.6L13.861,32.192a2.267,2.267,0,0,1-1.972,2.18l-10.138.611A1.721,1.721,0,0,1,0,33.027L1.662,2.439A1.856,1.856,0,0,1,3.277.654Z" transform="translate(373.036 154.348) rotate(-23.598)" fill="#2f2e41"/><path d="M3.277.654,14.089,0A1.409,1.409,0,0,1,15.52,1.6L13.861,32.192a2.267,2.267,0,0,1-1.972,2.18l-10.138.611A1.721,1.721,0,0,1,0,33.027L1.662,2.439A1.856,1.856,0,0,1,3.277.654Z" transform="translate(373.036 154.348) rotate(-23.598)" opacity="0.1"/><path d="M3.192.571,12.618,0a1.409,1.409,0,0,1,1.431,1.6L12.475,30.63A2.267,2.267,0,0,1,10.5,32.81l-8.752.528A1.721,1.721,0,0,1,0,31.382L1.578,2.355A1.856,1.856,0,0,1,3.192.571Z" transform="translate(373.695 155.839) rotate(-23.598)" fill="#2f2e41"/><path d="M2.946,0a2.586,2.586,0,0,1,2.6,2.955A3.406,3.406,0,0,1,2.607,6.25a2.586,2.586,0,0,1-2.6-2.955A3.406,3.406,0,0,1,2.946,0Z" transform="translate(379.692 162.014) rotate(-23.598)" fill="#f2f2f2"/><path d="M880.38,270.366l3.651-6.237s13.482,24.292,12.358,40.706-2.247,17.07-2.247,19.7-2.809,2.626,0,5.909,6.741,7.879,4.494,10.5-3.932,2.626-3.37,5.909a50.56,50.56,0,0,1,.562,7.222s-4.775,10.833-6.46,10.833-17.695,17.4-17.695,15.429,1.685-15.757,1.685-17.727.562-8.535,1.685-10.5,1.124-1.313,0-3.283-1.124,0-1.124-1.97.562-4.6-1.123-5.252-3.37,0-2.247-3.283,0-5.909-.562-5.909-3.37-.657-1.685-2.626-3.37-40.05-3.37-40.05S865.774,280.214,880.38,270.366Z" transform="translate(-403.518 -157.772)" opacity="0.1"/><path d="M878.34,253.782l9.55,5.252s13.482,24.292,12.358,40.706S898,316.811,898,319.437s-2.809,2.626,0,5.909,6.741,7.879,4.494,10.5-3.932,2.626-3.37,5.909a50.558,50.558,0,0,1,.562,7.222S894.63,380.5,892.945,380.5s-17.414-3.283-17.414-5.252,1.685-15.757,1.685-17.727.562-8.535,1.685-10.5,1.123-1.313,0-3.283-1.123,0-1.123-1.97.562-4.6-1.124-5.252-3.37,0-2.247-3.283,0-5.909-.562-5.909-3.37-.657-1.685-2.626-3.37-40.05-3.37-40.05S863.735,263.63,878.34,253.782Z" transform="translate(-404.568 -155.232)" fill="#575a89"/><path d="M748.532,365.7a2.254,2.254,0,0,1-2.708-1.428c-2.581-6.032-9.576-23.726-3.055-24.27,6.015-.5,11.373,13.207,13.56,19.682a3.61,3.61,0,0,1-.1,2.563,2.806,2.806,0,0,1-1.708,1.612Z" transform="translate(-359.999 -176.234)" fill="#ffb9b9"/><ellipse cx="20.784" cy="24.292" rx="20.784" ry="24.292" transform="translate(400.184 33.674)" fill="#ffb9b9"/><path d="M783.17,173.567a36.085,36.085,0,0,1-7.99,2.2c-2.047.373-4.442.564-5.881-1.178-1.412-1.71-1.183-4.562-.22-6.655s2.506-3.734,3.663-5.687c1.82-3.073,2.894-7.147,5.8-8.695a9.33,9.33,0,0,1,3.778-.825c7.552-.563,15.414-1.07,22.408,2.308a16.809,16.809,0,0,1,6.764,5.625,22.461,22.461,0,0,1,2.7,6.127c3.8,13.178,1.47,27.719-6.155,38.4-2.549-2.684-1.44-8.886-4.666-10.254-1.058-.449-2.254-.136-3.338-.492-3.406-1.116-3.235-7.269-6.071-9.741a5.7,5.7,0,0,1-1.615-1.551,4.428,4.428,0,0,1-.314-1.956c-.021-2.3.906-8.16-.976-9.74C789.15,169.845,785.01,172.791,783.17,173.567Z" transform="translate(-369.839 -129.592)" fill="#2f2e41"/><path d="M756.184,692s-1.528-38.409-32.85-33.944" transform="translate(-354.167 -255.499)" fill="#e6e6e6"/><path d="M976.485,573.869s1.528-38.409,32.85-33.944" transform="translate(-442.397 -225.628)" fill="#e6e6e6"/><path d="M975.259,722.018c-.039-.4-3.76-40.682,11.3-62,5.56-7.867,13.01-12.273,22.143-13.094l.1,1.518c-8.766.788-15.911,5.008-21.237,12.542-14.712,20.814-11.055,60.461-11.017,60.859Z" transform="translate(-441.818 -252.93)" fill="#e6e6e6"/><path d="M68.348,169.893H320.243v96.649H310.7v25.277l-21.627-25.277H68.348Z" transform="translate(-23.821 -42.365)" fill="#7e67f5"/><rect width="237.901" height="77.319" transform="translate(51.524 137.014)" fill="#fff"/><rect width="114.543" height="4.063" transform="translate(70.655 159.605)" fill="#7e67f5"/><rect width="199.639" height="4.063" transform="translate(70.655 173.508)" fill="#e6e6e6"/><rect width="199.444" height="4.063" transform="translate(70.655 187.411)" fill="#e6e6e6"/><path d="M251.895,339.785H0v96.65H9.542v25.277l21.627-25.277H251.895Z" transform="translate(0 -84.729)" fill="#7e67f5"/><rect width="237.901" height="77.319" transform="translate(6.997 264.737)" fill="#fff"/><rect width="114.543" height="4.063" transform="translate(28.036 288.305)" fill="#7e67f5"/><rect width="199.639" height="4.063" transform="translate(28.036 302.208)" fill="#e6e6e6"/><rect width="199.444" height="4.063" transform="translate(28.036 316.111)" fill="#e6e6e6"/><path d="M251.895,0H0V96.649H9.542v25.278L31.169,96.649H251.895Z" fill="#7e67f5"/><rect width="237.901" height="77.319" transform="translate(6.997 9.412)" fill="#fff"/><rect width="114.543" height="4.063" transform="translate(28.036 32.729)" fill="#7e67f5"/><rect width="199.639" height="4.063" transform="translate(28.036 46.784)" fill="#e6e6e6"/><rect width="199.444" height="4.063" transform="translate(28.036 60.838)" fill="#e6e6e6"/><rect width="1.303" height="83.757" transform="translate(400.856 391.801)" fill="#e6e6e6"/><rect width="1.303" height="168.276" transform="translate(532.455 307.282)" fill="#e6e6e6"/><ellipse cx="10.695" cy="12.501" rx="10.695" ry="12.501" transform="translate(391.321 370.634)" fill="#7e67f5"/><ellipse cx="10.695" cy="12.501" rx="10.695" ry="12.501" transform="translate(523.393 285.232)" fill="#7e67f5"/><ellipse cx="10.695" cy="12.501" rx="10.695" ry="12.501" transform="translate(556.243 383.226)" fill="#7e67f5"/></svg>